<svg width="173" height="80" viewBox="0 0 173 80" fill="none" xmlns="http://www.w3.org/2000/svg" aria-hidden="true">
	<g clip-path="url(#clip0_vsco_seed_logo)">
		<path
			d="M41.2773 0V0.0214844C62.3534 0.680316 79.3187 17.6485 79.9775 38.7285L79.9785 38.7275H80V41.2715H79.9785C79.3197 62.3528 62.3544 79.3197 41.2783 79.9785V80H38.7354V79.9785C22.9581 79.485 9.48688 69.8538 3.43262 56.2002L3.41016 56.21L2.43945 53.8594L2.47363 53.8447C1.02147 49.907 0.171514 45.6795 0.0341797 41.2725H0V38.7285H0.0341797C0.693006 17.6485 17.6583 0.680316 38.7344 0.0214844V0H41.2773ZM26.1738 74.8193C30.1808 76.4143 34.3968 77.2908 38.7344 77.4346V68.8682C35.4702 68.7244 32.3481 68.0355 29.459 66.8857L26.1738 74.8193ZM49.748 67.1924C47.0865 68.1577 44.2403 68.7384 41.2773 68.8682V77.4346C45.1608 77.3061 48.9452 76.5891 52.5693 75.2969L49.748 67.1924ZM59.4453 61.2549C57.2823 63.2656 54.8078 64.9458 52.1006 66.2139L54.9355 74.3604C58.8624 72.6509 62.4311 70.3054 65.5645 67.375L59.4453 61.2549ZM14.4404 67.3691C17.2443 69.993 20.3967 72.1502 23.8428 73.7998L27.1396 65.8389C24.7299 64.6204 22.5166 63.0703 20.5596 61.249L14.4404 67.3691ZM52.0732 53.8828C49.1422 56.4341 45.3964 58.0724 41.2764 58.3535V66.3232C44.3396 66.1769 47.3114 65.5022 50.1279 64.3105C52.9065 63.1353 55.4293 61.5028 57.6445 59.4551L52.0732 53.8828ZM22.3594 59.4473C24.5757 61.4985 27.1001 63.1322 29.8809 64.3086C32.6974 65.5003 35.6692 66.176 38.7324 66.3223V58.3535C34.6099 58.0711 30.861 56.4321 27.9287 53.877L22.3594 59.4473ZM65.9023 52.376C64.6981 54.9654 63.1168 57.3441 61.2285 59.4414L67.3613 65.5752C70.0876 62.6627 72.3071 59.3736 73.9805 55.7705L65.9023 52.376ZM5.78223 55.2305C7.47983 59.0434 9.7828 62.5141 12.6426 65.5703L18.7754 59.4365C16.7701 57.2083 15.1125 54.6617 13.8828 51.8828L5.78223 55.2305ZM58.3506 41.2715C58.0708 45.3974 56.4303 49.1498 53.873 52.084L59.4277 57.6387C61.33 55.5058 62.8575 53.0984 63.9727 50.4619H63.9736C65.2084 47.5418 65.8861 44.4536 65.998 41.2715H58.3506ZM14.0117 41.2725C14.1224 44.4547 14.8024 47.5427 16.0371 50.4629C17.151 53.0969 18.6752 55.5034 20.5762 57.6338L26.1309 52.0781C23.5775 49.1452 21.9392 45.3958 21.6582 41.2725H14.0117ZM40.0049 24.1553C35.7716 24.1553 31.7923 25.8039 28.7988 28.7979C25.8054 31.7919 24.1572 35.7718 24.1572 40.0059C24.1573 44.2399 25.8054 48.2199 28.7988 51.2139C31.7922 54.2078 35.7717 55.8555 40.0049 55.8555C44.2379 55.8554 48.2167 54.2076 51.21 51.2139C54.2034 48.2199 55.8515 44.2399 55.8516 40.0059C55.8516 35.7718 54.2034 31.7919 51.21 28.7979C48.2166 25.804 44.2379 24.1554 40.0049 24.1553ZM68.5439 41.2734C68.4448 44.3373 67.8646 47.2794 66.874 50.0254L74.9746 53.4307H74.9756C76.4698 49.5451 77.294 45.4656 77.4326 41.2734H68.5439ZM2.58008 41.2725C2.71244 45.2657 3.46439 49.1547 4.82617 52.8721L12.957 49.5117C12.0758 46.9133 11.5606 44.1469 11.4678 41.2725H2.58008ZM127.249 30.8047C130.249 30.8047 132.492 31.805 134.319 33.9443L131.939 35.7373C130.422 34.1158 128.939 33.7021 127.215 33.7021C125.283 33.7022 123.938 34.668 123.938 36.0137C123.939 37.0131 124.699 37.5989 126.768 38.0479L129.32 38.6006C133.321 39.4286 134.805 41.0832 134.805 43.7744C134.805 47.3952 131.735 49.7059 127.769 49.7061C124.492 49.7061 121.802 48.4652 119.422 45.8096L119.42 45.8076L121.834 43.876C123.73 45.9452 125.697 46.8076 127.731 46.8076C129.766 46.8076 131.215 45.738 131.215 44.2207C131.215 42.8751 130.215 42.1857 128.283 41.8066L125.835 41.2891C121.869 40.4611 120.316 38.9093 120.316 36.4609C120.316 33.116 123.351 30.8048 127.249 30.8047ZM163.656 30.8047C168.587 30.8049 172.002 34.7363 172.002 40.2549C172.002 45.7735 168.587 49.7049 163.656 49.7051C158.724 49.7051 155.275 45.738 155.275 40.2549C155.275 34.7718 158.725 30.8047 163.656 30.8047ZM145.277 30.8047C148.83 30.8048 151.624 32.5987 152.761 36.3926L149.035 37.0127C148.449 34.9435 147.173 33.668 145.275 33.668C142.378 33.6682 140.896 36.531 140.896 40.2549C140.896 43.9788 142.378 46.8074 145.275 46.8076C147.552 46.8076 148.897 45.2217 149.588 42.29L152.933 42.8076C151.967 47.1878 149.38 49.7038 145.276 49.7041C140.344 49.7037 136.896 45.7377 136.896 40.2549C136.897 34.7718 140.346 30.8047 145.277 30.8047ZM107.635 37.0488C108.531 39.6701 109.496 42.7391 110.29 45.3604C111.049 42.739 112.05 39.7044 112.912 37.083L114.912 31.2197H118.604L112.257 49.292H108.151L101.84 31.2197H105.703L107.635 37.0488ZM163.656 33.668C160.793 33.668 159.275 36.5308 159.275 40.2549C159.275 43.979 160.759 46.8076 163.656 46.8076C166.519 46.8074 168.002 43.9445 168.002 40.2549C168.002 36.5653 166.519 33.6682 163.656 33.668ZM4.87402 27.002C3.48285 30.7578 2.7136 34.6922 2.58008 38.7305H11.4971C11.656 35.879 12.2317 33.1402 13.165 30.5723L4.87402 27.001V27.002ZM20.8965 22.6875C18.8454 24.9043 17.2134 27.4305 16.0371 30.2119V30.2139C14.8889 32.9268 14.222 35.7861 14.0439 38.7305H21.6602C21.9425 34.6083 23.5823 30.8594 26.1357 27.9277L20.8965 22.6875ZM66.7402 30.2871C67.7359 32.9364 68.3506 35.7728 68.5146 38.7285H77.4326C77.294 34.553 76.4759 30.4907 74.9932 26.6191L66.7402 30.2871ZM53.8682 27.9189C56.4254 30.8519 58.0663 34.6029 58.3486 38.7275H65.9648C65.7868 35.7832 65.1209 32.9251 63.9727 30.2109C62.7951 27.4268 61.1592 24.8978 59.1055 22.6797L53.8682 27.9189ZM12.6416 14.4307C9.81348 17.4539 7.52849 20.8807 5.83594 24.6455L14.1406 28.2227C15.4084 25.52 17.0885 23.0473 19.0977 20.8877L12.6416 14.4307ZM60.9062 20.8818C62.8506 22.9703 64.4877 25.3498 65.7402 27.9482L74.0029 24.2764C72.3282 20.6541 70.1001 17.3501 67.3623 14.4248L60.9062 20.8818ZM38.7324 14.3506C35.6705 14.4969 32.6974 15.1726 29.8809 16.3643C27.2475 17.4783 24.8418 19.003 22.7119 20.9043L27.9336 26.1279C30.8646 23.5753 34.6125 21.9374 38.7324 21.6562V14.3506ZM41.2773 21.6562C45.3948 21.9373 49.1395 23.5743 52.0693 26.123L57.292 20.8994C55.1633 19.0019 52.7598 17.4781 50.1289 16.3652C47.3123 15.1736 44.3406 14.4978 41.2773 14.3516V21.6562ZM23.8428 6.20215C20.3969 7.85173 17.2442 10.0081 14.4404 12.6318L20.9111 19.1035C22.844 17.3637 25.0161 15.8844 27.3711 14.7207L23.8428 6.20215ZM54.834 5.59863L51.3145 14.1094C54.1806 15.3469 56.8029 17.0395 59.0918 19.0986L65.5635 12.626C62.4048 9.67022 58.802 7.30959 54.8359 5.59766L54.834 5.59863ZM38.7344 2.56641C34.3968 2.71013 30.1808 3.5867 26.1738 5.18164L29.6992 13.6953C32.5209 12.6028 35.5604 11.9453 38.7344 11.8066V2.56641ZM52.4668 4.66895C48.8735 3.39863 45.1236 2.69553 41.2773 2.56836V11.8066C43.9427 11.9237 46.5112 12.4063 48.9375 13.2051L52.4668 4.66895Z"
			fill="#1a1a1a"
		/>
	</g>
	<defs>
		<clipPath id="clip0_vsco_seed_logo">
			<rect width="173" height="80" fill="white" />
		</clipPath>
	</defs>
</svg>
