<svg viewBox="0 0 1400 900" width="1400" height="900" xmlns="http://www.w3.org/2000/svg" style="font-family: system-ui, -apple-system, 'Inter', sans-serif;">
  <defs>
    <marker id="arr-std" markerWidth="9" markerHeight="9" refX="7" refY="3.5" orient="auto">
      <path d="M0,0 L0,7 L9,3.5 z" fill="#888"/>
    </marker>
    <marker id="arr-dark" markerWidth="9" markerHeight="9" refX="7" refY="3.5" orient="auto">
      <path d="M0,0 L0,7 L9,3.5 z" fill="#1a1a1a"/>
    </marker>
    <marker id="arr-blue" markerWidth="9" markerHeight="9" refX="7" refY="3.5" orient="auto">
      <path d="M0,0 L0,7 L9,3.5 z" fill="#3b5bdb"/>
    </marker>
  </defs>
  <!-- Background -->
  <rect width="1400" height="900" fill="#f7f7f5"/>
  <!-- Column dividers -->
  <line x1="280" y1="50" x2="280" y2="875" stroke="#e4e4e4" stroke-width="1"/>
  <line x1="560" y1="50" x2="560" y2="875" stroke="#e4e4e4" stroke-width="1"/>
  <line x1="840" y1="50" x2="840" y2="875" stroke="#e4e4e4" stroke-width="1"/>
  <line x1="1120" y1="50" x2="1120" y2="875" stroke="#e4e4e4" stroke-width="1"/>
  <!-- Column headers -->
  <text x="140" y="36" text-anchor="middle" font-size="11" font-weight="700" fill="#aaa" letter-spacing="1.5">CONTEXT</text>
  <text x="420" y="36" text-anchor="middle" font-size="11" font-weight="700" fill="#aaa" letter-spacing="1.5">DESIGN</text>
  <text x="700" y="36" text-anchor="middle" font-size="11" font-weight="700" fill="#3b5bdb" letter-spacing="1.5">FEEDBACK LOOP</text>
  <text x="980" y="36" text-anchor="middle" font-size="11" font-weight="700" fill="#aaa" letter-spacing="1.5">SYSTEM</text>
  <text x="1260" y="36" text-anchor="middle" font-size="11" font-weight="700" fill="#aaa" letter-spacing="1.5">HANDOFF</text>
  <!-- CONTEXT COLUMN -->
  <rect x="50" y="68" width="180" height="74" rx="8" fill="#ffffff" stroke="#e0e0e0" stroke-width="1.5"/>
  <text x="140" y="94" text-anchor="middle" font-size="14" font-weight="700" fill="#111">Claude Project</text>
  <text x="140" y="113" text-anchor="middle" font-size="12" fill="#666">PRDs · research</text>
  <text x="140" y="130" text-anchor="middle" font-size="12" fill="#666">eng constraints</text>
  <line x1="140" y1="142" x2="140" y2="164" stroke="#888" stroke-width="1.5" marker-end="url(#arr-std)"/>
  <rect x="50" y="166" width="180" height="56" rx="8" fill="#ffffff" stroke="#e0e0e0" stroke-width="1.5"/>
  <text x="140" y="192" text-anchor="middle" font-size="14" font-weight="700" fill="#111">CLAUDE.md</text>
  <text x="140" y="210" text-anchor="middle" font-size="12" fill="#666">persistent context</text>
  <line x1="140" y1="222" x2="140" y2="244" stroke="#888" stroke-width="1.5" marker-end="url(#arr-std)"/>
  <rect x="50" y="246" width="180" height="56" rx="8" fill="#ffffff" stroke="#e0e0e0" stroke-width="1.5"/>
  <text x="140" y="272" text-anchor="middle" font-size="14" font-weight="700" fill="#111">Starter Template</text>
  <text x="140" y="290" text-anchor="middle" font-size="12" fill="#666">sandbox-design-starter</text>
  <line x1="230" y1="274" x2="322" y2="274" stroke="#888" stroke-width="1.5" marker-end="url(#arr-std)"/>
  <rect x="50" y="590" width="180" height="132" rx="8" fill="#f0f0f0" stroke="#bbb" stroke-width="1.5" stroke-dasharray="6,3"/>
  <text x="140" y="616" text-anchor="middle" font-size="13" font-weight="700" fill="#222">Designer owns</text>
  <text x="140" y="638" text-anchor="middle" font-size="12" fill="#444">· what to build + why</text>
  <text x="140" y="657" text-anchor="middle" font-size="12" fill="#444">· is this right?</text>
  <text x="140" y="676" text-anchor="middle" font-size="12" fill="#444">· craft + judgment</text>
  <text x="140" y="702" text-anchor="middle" font-size="11" fill="#999">AI handles execution</text>
  <!-- DESIGN COLUMN -->
  <rect x="330" y="166" width="180" height="52" rx="8" fill="#f8f8f8" stroke="#d0d0d0" stroke-width="1.5" stroke-dasharray="5,3"/>
  <text x="420" y="191" text-anchor="middle" font-size="14" font-weight="700" fill="#555">Claude</text>
  <text x="420" y="208" text-anchor="middle" font-size="12" fill="#777">design partner</text>
  <line x1="420" y1="218" x2="420" y2="238" stroke="#aaa" stroke-width="1.5" stroke-dasharray="4,3" marker-end="url(#arr-std)"/>
  <rect x="330" y="240" width="180" height="80" rx="8" fill="#1a1a1a" stroke="none"/>
  <text x="420" y="268" text-anchor="middle" font-size="14" font-weight="700" fill="#ffffff">Cursor Prototype</text>
  <text x="420" y="288" text-anchor="middle" font-size="12" fill="#aaa">React · real state</text>
  <text x="420" y="306" text-anchor="middle" font-size="12" fill="#aaa">real browser</text>
  <line x1="510" y1="280" x2="582" y2="280" stroke="#3b5bdb" stroke-width="1.5" marker-end="url(#arr-blue)"/>
  <path d="M420,320 L420,856 L1174,856 L1174,692" fill="none" stroke="#1a1a1a" stroke-width="2" marker-end="url(#arr-dark)"/>
  <text x="408" y="590" text-anchor="middle" font-size="11" fill="#999" transform="rotate(-90 408 590)">when ready</text>
  <!-- FEEDBACK LOOP COLUMN -->
  <rect x="590" y="254" width="220" height="64" rx="8" fill="#eef1ff" stroke="#3b5bdb" stroke-width="1.5"/>
  <text x="700" y="281" text-anchor="middle" font-size="14" font-weight="700" fill="#3b5bdb">HTML-to-Design</text>
  <text x="700" y="300" text-anchor="middle" font-size="12" fill="#3b5bdb">MCP · imports live screens</text>
  <line x1="700" y1="318" x2="700" y2="344" stroke="#3b5bdb" stroke-width="1.5" marker-end="url(#arr-blue)"/>
  <rect x="590" y="346" width="220" height="162" rx="8" fill="#eef1ff" stroke="#3b5bdb" stroke-width="1.5"/>
  <text x="700" y="372" text-anchor="middle" font-size="14" font-weight="700" fill="#3b5bdb">Figma</text>
  <text x="700" y="392" text-anchor="middle" font-size="12" fill="#3b5bdb">async feedback</text>
  <rect x="606" y="406" width="60" height="44" rx="4" fill="#fff9c4" stroke="#e8cc00" stroke-width="1"/>
  <text x="636" y="424" text-anchor="middle" font-size="11" fill="#666">stickies</text>
  <text x="636" y="440" text-anchor="middle" font-size="11" fill="#666">notes</text>
  <rect x="677" y="406" width="66" height="44" rx="4" fill="#ffffff" stroke="#e0e0e0" stroke-width="1"/>
  <text x="710" y="424" text-anchor="middle" font-size="11" fill="#666">comments</text>
  <text x="710" y="440" text-anchor="middle" font-size="11" fill="#666">reviews</text>
  <rect x="754" y="406" width="50" height="44" rx="4" fill="#e8fce8" stroke="#9ed09e" stroke-width="1"/>
  <text x="779" y="424" text-anchor="middle" font-size="11" fill="#555">tweak</text>
  <text x="779" y="440" text-anchor="middle" font-size="11" fill="#555">polish</text>
  <path d="M590,420 L545,420 L545,306 L332,306" fill="none" stroke="#3b5bdb" stroke-width="1.5" stroke-dasharray="5,3" marker-end="url(#arr-blue)"/>
  <text x="533" y="365" text-anchor="middle" font-size="11" fill="#3b5bdb" transform="rotate(-90 533 365)">back to Cursor</text>
  <line x1="810" y1="420" x2="882" y2="420" stroke="#888" stroke-width="1.5" marker-end="url(#arr-std)"/>
  <!-- SYSTEM COLUMN -->
  <rect x="890" y="392" width="180" height="64" rx="8" fill="#ffffff" stroke="#e0e0e0" stroke-width="1.5"/>
  <text x="980" y="418" text-anchor="middle" font-size="14" font-weight="700" fill="#111">VUI Audit</text>
  <text x="980" y="437" text-anchor="middle" font-size="12" fill="#666">cursor-to-figma-vui skill</text>
  <line x1="980" y1="456" x2="980" y2="478" stroke="#888" stroke-width="1.5" marker-end="url(#arr-std)"/>
  <polygon points="980,480 1016,504 980,528 944,504" fill="#ffffff" stroke="#e0e0e0" stroke-width="1.5"/>
  <text x="980" y="508" text-anchor="middle" font-size="12" fill="#444">gap?</text>
  <line x1="980" y1="528" x2="980" y2="554" stroke="#888" stroke-width="1.5" marker-end="url(#arr-std)"/>
  <text x="992" y="544" font-size="11" fill="#888">yes</text>
  <rect x="890" y="556" width="180" height="80" rx="8" fill="#1a1a1a" stroke="none"/>
  <text x="980" y="584" text-anchor="middle" font-size="14" font-weight="700" fill="#ffffff">Build with Claude</text>
  <text x="980" y="604" text-anchor="middle" font-size="12" fill="#aaa">Figma Plugin API</text>
  <text x="980" y="622" text-anchor="middle" font-size="12" fill="#aaa">VUI primitives</text>
  <line x1="980" y1="636" x2="980" y2="658" stroke="#888" stroke-width="1.5" marker-end="url(#arr-std)"/>
  <rect x="890" y="660" width="180" height="56" rx="8" fill="#ffffff" stroke="#e0e0e0" stroke-width="1.5"/>
  <text x="980" y="686" text-anchor="middle" font-size="14" font-weight="700" fill="#111">Publish to VUI</text>
  <text x="980" y="704" text-anchor="middle" font-size="12" fill="#666">design system library</text>
  <line x1="1016" y1="504" x2="1054" y2="504" stroke="#888" stroke-width="1.5" marker-end="url(#arr-std)"/>
  <text x="1032" y="497" text-anchor="middle" font-size="11" fill="#888">no</text>
  <rect x="1056" y="482" width="134" height="44" rx="8" fill="#ffffff" stroke="#e0e0e0" stroke-width="1.5"/>
  <text x="1123" y="503" text-anchor="middle" font-size="13" font-weight="700" fill="#111">Use existing</text>
  <text x="1123" y="519" text-anchor="middle" font-size="12" fill="#666">component</text>
  <!-- HANDOFF COLUMN -->
  <rect x="1175" y="346" width="170" height="96" rx="8" fill="#ffffff" stroke="#e0e0e0" stroke-width="1.5"/>
  <text x="1260" y="372" text-anchor="middle" font-size="13" font-weight="700" fill="#444">Branch lifecycle</text>
  <text x="1260" y="394" text-anchor="middle" font-size="12" fill="#888">wip</text>
  <text x="1260" y="412" text-anchor="middle" font-size="12" fill="#888">→ concept-testing</text>
  <text x="1260" y="430" text-anchor="middle" font-size="12" fill="#888">→ eng-ready</text>
  <rect x="1175" y="648" width="170" height="80" rx="8" fill="#1a1a1a" stroke="none"/>
  <text x="1260" y="676" text-anchor="middle" font-size="14" font-weight="700" fill="#ffffff">Eng-Ready Branch</text>
  <text x="1260" y="696" text-anchor="middle" font-size="12" fill="#aaa">working code</text>
  <text x="1260" y="714" text-anchor="middle" font-size="12" fill="#aaa">changelog · Figma link</text>
  <line x1="1260" y1="728" x2="1260" y2="750" stroke="#1a1a1a" stroke-width="2" marker-end="url(#arr-dark)"/>
  <rect x="1175" y="752" width="170" height="56" rx="8" fill="#ffffff" stroke="#e0e0e0" stroke-width="1.5"/>
  <text x="1260" y="778" text-anchor="middle" font-size="14" font-weight="700" fill="#111">Engineering</text>
  <text x="1260" y="796" text-anchor="middle" font-size="12" fill="#666">builds from branch</text>
</svg>
